HIERARCHY
ROOT Pelvis
{
	OFFSET 0.000000 0.000000 0.000000
	CHANNELS 6 Xposition Yposition Zposition Xrotation Yrotation Zrotation
	JOINT LeftUpLeg_virtual
	{
		OFFSET 0.000000 0.000000 0.000000
		CHANNELS 3 Xrotation Yrotation Zrotation
		JOINT LeftUpLeg
		{
			OFFSET 18.735201 -5.666702 -4.541200
			CHANNELS 3 Xrotation Yrotation Zrotation
			JOINT LeftLeg
			{
				OFFSET -0.021200 -31.938179 0.493100
				CHANNELS 3 Xrotation Yrotation Zrotation
				JOINT LeftFoot
				{
					OFFSET 0.021200 -31.938179 -4.336299
					CHANNELS 3 Xrotation Yrotation Zrotation
					JOINT LeftToeBase
					{
						OFFSET 0.943001 -26.722000 15.023500
						CHANNELS 3 Xrotation Yrotation Zrotation
						End Site
						{
							OFFSET 0 0 0
						}
					}
				}
			}
		}
	}
	JOINT RightUpLeg_virtual
	{
		OFFSET 0.000000 0.000000 0.000000
		CHANNELS 3 Xrotation Yrotation Zrotation
		JOINT RightUpLeg
		{
			OFFSET -18.735201 -5.666702 -4.541200
			CHANNELS 3 Xrotation Yrotation Zrotation
			JOINT RightLeg
			{
				OFFSET 0.018946 -31.938133 0.493100
				CHANNELS 3 Xrotation Yrotation Zrotation
				JOINT RightFoot
				{
					OFFSET -0.018946 -31.938126 -4.336299
					CHANNELS 3 Xrotation Yrotation Zrotation
					JOINT RightToeBase
					{
						OFFSET -0.943001 -26.722004 15.023500
						CHANNELS 3 Xrotation Yrotation Zrotation
						End Site
						{
							OFFSET 0 0 0
						}
					}
				}
			}
		}
	}
	JOINT Hips_virtual
	{
		OFFSET 0.000000 0.000000 0.000000
		CHANNELS 3 Xrotation Yrotation Zrotation
		JOINT Hips
		{
			OFFSET -0.000000 -0.000000 -0.000000
			CHANNELS 3 Xrotation Yrotation Zrotation
			JOINT Spine
			{
				OFFSET 0.000000 10.199997 -0.299500
				CHANNELS 3 Xrotation Yrotation Zrotation
				JOINT Spine1
				{
					OFFSET 0.000000 11.900002 -1.516600
					CHANNELS 3 Xrotation Yrotation Zrotation
					JOINT Spine2
					{
						OFFSET 0.000000 13.600006 -2.842500
						CHANNELS 3 Xrotation Yrotation Zrotation
						JOINT Neck_virtual
						{
							OFFSET 0.000000 0.000000 0.000000
							CHANNELS 3 Xrotation Yrotation Zrotation
							JOINT Neck
							{
								OFFSET 0.000000 9.624100 -2.890100
								CHANNELS 3 Xrotation Yrotation Zrotation
								JOINT Head
								{
									OFFSET 0.000000 14.068802 -1.351900
									CHANNELS 3 Xrotation Yrotation Zrotation
									End Site
									{
										OFFSET 0 0 0
									}
								}
							}
						}
						JOINT LeftShoulder_virtual
						{
							OFFSET 0.000000 0.000000 0.000000
							CHANNELS 3 Xrotation Yrotation Zrotation
							JOINT LeftShoulder
							{
								OFFSET 15.263000 10.923401 -0.547700
								CHANNELS 3 Xrotation Yrotation Zrotation
								JOINT LeftArm
								{
									OFFSET 25.438599 -2.830597 -13.032500
									CHANNELS 3 Xrotation Yrotation Zrotation
									JOINT LeftForeArm
									{
										OFFSET 29.960503 0.000000 0.000000
										CHANNELS 3 Xrotation Yrotation Zrotation
										JOINT LeftHand
										{
											OFFSET 27.849251 0.000000 0.000000
											CHANNELS 3 Xrotation Yrotation Zrotation
											End Site
											{
												OFFSET 0 0 0
											}
										}
									}
								}
							}
						}
						JOINT RightShoulder_virtual
						{
							OFFSET 0.000000 0.000000 0.000000
							CHANNELS 3 Xrotation Yrotation Zrotation
							JOINT RightShoulder
							{
								OFFSET -15.263000 10.923401 -0.547700
								CHANNELS 3 Xrotation Yrotation Zrotation
								JOINT RightArm
								{
									OFFSET -25.438599 -2.830597 -13.032500
									CHANNELS 3 Xrotation Yrotation Zrotation
									JOINT RightForeArm
									{
										OFFSET -29.960503 0.000000 0.000000
										CHANNELS 3 Xrotation Yrotation Zrotation
										JOINT RightHand
										{
											OFFSET -27.849251 0.000000 0.000000
											CHANNELS 3 Xrotation Yrotation Zrotation
											End Site
											{
												OFFSET 0 0 0
											}
										}
									}
								}
							}
						}
					}
				}
			}
		}
	}
}
MOTION
Frames: 4
Frame Time: 0.03333333
0.987777 56.587227 -3.691643 0.000000 0.000000 0.000000 -179.512972 -4.741356 171.541280 -90.638495 -24.206950 14.508336 124.575055 1.078228 2.292891 -27.738689 5.609834 -17.513959 0.000000 0.000000 0.000000 -179.512972 -4.741356 171.541280 -59.091593 17.626936 -29.344190 109.644542 6.005717 -0.094155 -28.974868 -10.362103 30.766915 0.000000 0.000000 0.000000 -179.512972 -4.741356 171.541280 0.000000 0.000000 0.000000 4.072242 3.112980 -2.651222 8.251961 6.771406 -4.731506 0.000000 0.000000 0.000000 8.251960 6.771408 -4.731518 -0.115459 5.676528 1.235488 0.000000 0.000000 0.000000 8.251960 6.771408 -4.731518 1.033490 -15.235097 -11.647766 3.042448 -0.761204 -32.016368 40.133567 -33.388184 -1.908159 0.000000 0.000000 0.000000 8.251960 6.771408 -4.731518 3.185201 -18.297163 12.806542 12.807453 -13.875012 59.330520 29.940817 40.956898 -3.738877 0.000000 0.000000 0.000000 
0.984040 56.586334 -3.698914 0.000000 0.000000 0.000000 -179.535593 -4.737610 171.539340 -90.655093 -24.203545 14.504199 124.578143 1.079003 2.292882 -27.749283 5.612230 -17.513022 0.000000 0.000000 0.000000 -179.535593 -4.737610 171.539340 -59.112965 17.620039 -29.357246 109.647370 6.001068 -0.094777 -28.979294 -10.350867 30.743248 0.000000 0.000000 0.000000 -179.535593 -4.737610 171.539340 0.000000 0.000000 0.000001 4.066990 3.110535 -2.650585 8.241341 6.766910 -4.730118 0.000000 0.000000 0.000000 8.241340 6.766909 -4.730119 -0.117924 5.682663 1.222625 0.000000 0.000000 0.000000 8.241340 6.766909 -4.730119 1.032236 -15.314486 -11.643154 3.086116 -0.688670 -32.029448 40.144560 -33.392645 -1.914892 0.000000 0.000000 0.000000 8.241340 6.766909 -4.730119 3.178405 -18.230238 12.777570 12.845293 -13.905129 59.356680 29.929377 40.938699 -3.736769 0.000000 0.000000 0.000000 
0.975882 56.585922 -3.706081 0.000000 0.000000 0.000000 -179.553078 -4.748035 171.538398 -90.679306 -24.186735 14.495229 124.580984 1.083736 2.293422 -27.754725 5.606615 -17.498800 0.000000 0.000000 0.000000 -179.553078 -4.748035 171.538398 -59.104646 17.603238 -29.376005 109.649904 5.998228 -0.095203 -29.010337 -10.352741 30.727976 0.000000 0.000000 0.000000 -179.553078 -4.748035 171.538398 0.000000 0.000000 0.000001 4.063872 3.107721 -2.650230 8.234949 6.762118 -4.728768 0.000000 0.000000 0.000000 8.234946 6.762117 -4.728762 -0.114377 5.684470 1.215365 0.000000 0.000000 0.000000 8.234946 6.762117 -4.728762 1.018273 -15.384837 -11.671204 3.130074 -0.613956 -31.998419 40.157045 -33.422434 -1.934967 0.000000 0.000000 0.000000 8.234946 6.762117 -4.728762 3.169457 -18.205179 12.731741 12.862358 -13.921443 59.407674 29.931043 40.882350 -3.744448 0.000000 0.000000 0.000000 
0.968710 56.585884 -3.713726 0.000000 0.000000 0.000000 -179.570359 -4.757500 171.537469 -90.698389 -24.169179 14.488018 124.585861 1.088829 2.293656 -27.766491 5.601596 -17.484926 0.000000 0.000000 0.000000 -179.570359 -4.757500 171.537469 -59.097064 17.588266 -29.392773 109.652089 5.994643 -0.095293 -29.038027 -10.354867 30.715180 0.000000 0.000000 0.000000 -179.570359 -4.757500 171.537469 0.000000 0.000001 -0.000001 4.060022 3.106209 -2.648173 8.227047 6.760018 -4.723991 0.000000 0.000000 0.000000 8.227051 6.760015 -4.723980 -0.110907 5.686807 1.209660 0.000000 0.000000 0.000000 8.227051 6.760015 -4.723980 1.010124 -15.419010 -11.688371 3.153017 -0.589274 -31.984663 40.162629 -33.418067 -1.949313 0.000000 0.000000 0.000000 8.227051 6.760015 -4.723980 3.165846 -18.194355 12.713012 12.873439 -13.941521 59.432666 29.941470 40.850952 -3.760522 0.000000 0.000000 0.000000 
